<svg id="svg" xmlns="http://www.w3.org/2000/svg" xmlns:xlink="http://www.w3.org/1999/xlink" width="400" height="168.3815774053674" viewBox="0, 0, 400,168.3815774053674"><g id="svgg"><path id="path2" d="" stroke="none" fill="#f8c43c" fill-rule="evenodd"></path><path id="path3" d="" stroke="none" fill="#f8c43c" fill-rule="evenodd"></path><path id="path4" d="" stroke="none" fill="#f8c43c" fill-rule="evenodd"></path><path id="path0" d="M133.333 9.917 L 133.333 19.500 123.667 19.500 L 114.000 19.500 114.000 32.583 L 114.000 45.667 116.083 45.667 L 118.167 45.667 118.167 34.583 L 118.167 23.500 125.750 23.500 C 130.694 23.500,133.333 23.558,133.333 23.667 C 133.333 23.768,134.083 23.833,135.250 23.833 C 136.417 23.833,137.167 23.768,137.167 23.667 C 137.167 23.556,159.861 23.500,204.917 23.500 L 272.667 23.500 272.667 34.583 L 272.667 45.667 274.667 45.667 L 276.667 45.667 276.667 32.583 L 276.667 19.500 206.917 19.500 L 137.167 19.500 137.167 11.917 L 137.167 4.333 214.500 4.333 L 291.833 4.333 291.833 25.000 L 291.833 45.667 293.833 45.667 L 295.833 45.667 295.833 23.000 L 295.833 0.333 214.583 0.333 L 133.333 0.333 133.333 9.917 M58.000 61.938 C 54.269 62.160,50.903 62.946,48.041 64.261 C 47.559 64.483,47.109 64.675,47.041 64.689 C 46.973 64.704,46.654 64.875,46.333 65.070 C 46.012 65.265,45.555 65.523,45.316 65.644 C 44.811 65.900,42.748 67.440,41.561 68.448 C 39.964 69.805,36.198 74.647,36.438 75.035 C 36.483 75.108,36.455 75.167,36.377 75.167 C 36.298 75.167,35.921 75.823,35.539 76.625 C 29.089 90.165,31.725 104.169,41.667 109.166 C 46.884 111.789,55.418 112.474,61.209 110.734 C 61.965 110.507,62.735 110.288,62.921 110.248 C 63.475 110.126,65.251 109.373,66.112 108.893 C 66.555 108.647,67.151 108.314,67.437 108.154 C 71.393 105.941,75.969 100.214,77.509 95.549 C 77.714 94.926,77.915 94.327,77.955 94.218 C 78.000 94.096,77.782 93.981,77.389 93.919 C 75.927 93.688,74.720 93.501,74.250 93.435 C 73.975 93.396,73.262 93.284,72.667 93.187 C 72.071 93.089,71.321 92.969,71.000 92.921 C 70.679 92.872,68.996 92.609,67.260 92.336 C 65.525 92.063,64.092 91.857,64.076 91.878 C 64.061 91.899,63.700 92.657,63.275 93.561 C 60.671 99.103,57.134 101.379,52.493 100.499 C 49.705 99.970,47.163 97.266,46.886 94.536 C 46.842 94.104,46.754 93.494,46.690 93.180 C 46.106 90.314,48.315 81.926,50.484 78.774 C 50.768 78.361,51.000 77.988,51.000 77.946 C 51.000 77.903,51.430 77.404,51.955 76.836 C 55.943 72.520,61.591 71.736,64.895 75.040 C 65.877 76.022,66.221 76.817,66.553 78.876 L 66.750 80.100 70.000 79.735 C 71.787 79.534,73.550 79.327,73.917 79.276 C 74.283 79.225,75.821 79.059,77.333 78.907 C 80.613 78.577,80.428 78.706,80.090 76.977 C 78.519 68.952,72.516 63.245,64.608 62.260 C 64.072 62.193,63.472 62.114,63.275 62.083 C 62.626 61.984,58.935 61.882,58.000 61.938 M135.438 62.958 C 135.392 63.119,135.196 64.000,135.003 64.917 C 134.810 65.833,134.472 67.408,134.251 68.417 C 134.030 69.425,133.545 71.675,133.174 73.417 C 132.380 77.145,131.993 78.946,131.330 82.000 C 131.061 83.237,130.809 84.438,130.769 84.667 C 130.730 84.896,130.498 85.944,130.254 86.996 C 130.010 88.048,129.742 89.248,129.658 89.663 C 129.152 92.160,126.263 105.576,125.836 107.407 C 125.653 108.191,125.466 109.076,125.420 109.374 C 125.374 109.673,125.289 110.123,125.232 110.375 L 125.128 110.833 131.881 110.833 L 138.633 110.833 138.909 109.542 C 139.061 108.831,139.326 107.650,139.498 106.917 C 139.670 106.183,139.863 105.283,139.927 104.917 C 140.090 103.988,140.037 104.233,141.150 99.228 C 142.528 93.027,142.942 91.631,143.928 89.854 C 144.151 89.453,144.333 89.066,144.333 88.993 C 144.333 88.862,144.567 88.563,145.667 87.287 C 147.390 85.287,150.336 84.462,152.041 85.501 C 152.339 85.683,152.525 85.832,152.454 85.833 C 152.384 85.833,152.453 86.028,152.609 86.266 C 153.162 87.110,152.910 88.921,151.001 97.833 C 150.149 101.812,149.327 105.702,149.170 106.500 C 149.088 106.912,148.867 107.943,148.678 108.790 C 148.488 109.637,148.333 110.443,148.333 110.582 C 148.333 110.998,161.605 110.958,161.736 110.542 C 161.787 110.381,162.088 109.013,162.406 107.500 C 162.724 105.987,163.181 103.822,163.422 102.687 C 163.663 101.553,163.882 100.465,163.908 100.270 C 163.934 100.076,164.001 99.804,164.055 99.667 C 164.110 99.529,164.307 98.667,164.492 97.750 C 164.677 96.833,165.019 95.183,165.251 94.083 C 167.775 82.146,167.634 80.281,163.966 77.046 C 160.252 73.771,150.807 75.055,146.014 79.486 C 145.150 80.283,145.052 80.257,145.319 79.296 C 145.428 78.904,145.541 78.396,145.570 78.167 C 145.599 77.938,145.663 77.637,145.713 77.500 C 145.763 77.362,145.955 76.537,146.141 75.667 C 146.326 74.796,146.862 72.283,147.330 70.083 C 147.799 67.883,148.329 65.421,148.508 64.612 C 148.687 63.803,148.833 63.035,148.833 62.904 C 148.833 62.501,135.555 62.554,135.438 62.958 M266.109 64.042 C 265.795 65.698,264.694 71.082,264.560 71.618 L 264.464 72.000 271.212 72.000 L 277.961 72.000 278.267 70.375 C 278.436 69.481,278.583 68.675,278.595 68.583 C 278.606 68.492,278.657 68.304,278.707 68.167 C 278.757 68.029,279.001 66.904,279.247 65.667 C 279.494 64.429,279.735 63.248,279.783 63.042 L 279.869 62.667 273.120 62.667 L 266.370 62.667 266.109 64.042 M101.333 75.346 C 98.566 75.638,96.203 76.249,94.230 77.184 C 93.668 77.449,93.140 77.667,93.055 77.667 C 92.970 77.667,92.154 78.160,91.242 78.762 C 82.492 84.541,79.557 97.109,85.058 105.250 C 85.815 106.370,87.902 108.500,88.243 108.500 C 88.365 108.500,88.503 108.601,88.551 108.725 C 88.773 109.304,92.487 110.780,94.917 111.255 C 109.557 114.118,121.759 105.287,122.097 91.583 C 122.161 89.009,121.858 86.542,121.386 85.785 C 121.316 85.674,121.239 85.451,121.214 85.289 C 121.041 84.178,119.001 81.017,117.467 79.483 C 114.240 76.256,107.965 74.647,101.333 75.346 M191.667 75.288 C 181.638 76.082,174.166 82.538,172.326 92.000 C 171.634 95.560,172.246 101.359,173.457 102.708 C 173.601 102.869,173.667 103.000,173.605 103.000 C 173.267 103.000,174.921 105.500,176.179 106.889 C 177.869 108.755,180.713 110.293,183.667 110.937 C 183.987 111.007,184.287 111.073,184.333 111.084 C 186.457 111.569,192.123 111.759,195.284 111.450 C 197.515 111.231,200.128 110.556,201.948 109.727 C 202.424 109.511,202.892 109.333,202.990 109.333 C 203.087 109.333,203.167 109.271,203.167 109.194 C 203.167 109.118,203.260 109.055,203.375 109.054 C 204.359 109.048,208.391 105.270,209.706 103.122 L 210.494 101.833 209.872 101.821 C 209.530 101.814,209.100 101.780,208.917 101.746 C 208.733 101.712,208.021 101.638,207.333 101.583 C 206.646 101.528,205.333 101.409,204.417 101.320 C 203.500 101.230,202.338 101.119,201.833 101.073 C 201.329 101.027,200.579 100.954,200.167 100.911 C 199.754 100.868,199.004 100.795,198.500 100.747 L 197.583 100.661 196.671 101.588 C 192.261 106.072,185.167 103.384,185.167 97.230 L 185.167 96.833 198.417 96.833 C 205.704 96.833,211.672 96.777,211.679 96.708 C 211.697 96.523,211.815 95.857,211.995 94.917 C 212.581 91.865,212.616 88.104,212.079 86.000 C 211.779 84.825,210.416 81.833,210.181 81.833 C 210.101 81.833,209.990 81.665,209.933 81.458 C 209.474 79.796,204.859 76.647,202.081 76.101 C 201.807 76.047,201.058 75.897,200.417 75.766 C 198.349 75.345,193.970 75.106,191.667 75.288 M234.333 75.420 C 226.582 76.242,221.403 79.769,219.899 85.250 C 219.659 86.125,219.578 89.189,219.790 89.401 C 219.857 89.468,219.914 89.612,219.917 89.720 C 219.960 91.638,223.397 95.202,225.554 95.566 C 225.662 95.584,225.900 95.682,226.083 95.783 C 226.797 96.177,230.225 96.985,233.750 97.590 C 234.575 97.731,235.325 97.868,235.417 97.893 C 235.508 97.919,235.843 98.000,236.160 98.074 C 237.965 98.495,238.667 99.218,238.667 100.657 C 238.667 101.923,237.391 103.481,236.110 103.780 C 231.615 104.831,228.812 103.911,227.896 101.084 C 227.535 99.970,227.609 100.006,226.000 100.166 C 225.221 100.243,223.571 100.392,222.333 100.496 C 219.693 100.717,218.690 100.807,217.667 100.913 C 217.254 100.956,216.354 101.038,215.667 101.096 C 214.105 101.227,214.196 101.034,214.719 103.099 C 215.945 107.939,218.775 110.189,225.000 111.271 C 228.880 111.945,237.811 111.615,240.000 110.716 C 240.137 110.660,240.300 110.623,240.360 110.635 C 240.867 110.734,244.130 109.312,245.682 108.315 C 246.860 107.558,249.564 104.905,249.411 104.657 C 249.357 104.571,249.384 104.500,249.470 104.500 C 249.757 104.500,250.839 102.056,251.105 100.811 C 252.252 95.426,249.088 91.057,243.223 89.927 C 243.038 89.892,242.594 89.781,242.235 89.680 C 241.877 89.579,240.421 89.309,239.000 89.080 C 233.309 88.161,232.084 87.680,231.673 86.201 C 231.425 85.308,231.450 85.143,231.954 84.367 C 233.709 81.660,239.959 82.134,240.859 85.042 C 241.099 85.817,240.803 85.809,246.417 85.180 C 251.514 84.609,253.370 84.424,253.542 84.468 C 254.148 84.624,252.627 80.875,251.492 79.417 C 248.951 76.150,242.224 74.583,234.333 75.420 M299.000 75.358 C 296.660 75.592,292.608 76.653,291.858 77.229 C 291.734 77.324,291.535 77.416,291.416 77.434 C 291.296 77.451,290.692 77.749,290.073 78.095 C 281.988 82.617,277.934 93.756,281.282 102.250 C 281.607 103.075,281.968 103.862,282.083 104.000 C 282.199 104.138,282.409 104.475,282.551 104.750 C 283.062 105.742,285.843 108.667,286.275 108.667 C 286.383 108.667,286.497 108.731,286.528 108.810 C 286.682 109.207,290.951 111.068,291.477 110.967 C 291.535 110.956,291.696 110.997,291.833 111.057 C 294.209 112.106,302.559 111.728,306.500 110.395 C 319.708 105.926,324.556 88.364,315.082 79.303 C 314.573 78.815,314.121 78.435,314.078 78.458 C 314.035 78.481,313.852 78.352,313.672 78.172 C 311.639 76.139,304.633 74.795,299.000 75.358 M352.583 75.431 C 348.922 75.983,345.856 77.538,342.937 80.323 C 342.229 80.999,341.826 81.289,341.883 81.083 C 341.933 80.900,342.132 80.000,342.325 79.083 C 342.518 78.167,342.745 77.161,342.831 76.847 C 343.067 75.980,343.213 76.000,336.588 76.000 L 330.363 76.000 330.247 76.708 C 330.183 77.098,329.945 78.242,329.719 79.250 C 329.493 80.258,329.284 81.271,329.254 81.500 C 329.224 81.729,329.084 82.367,328.943 82.917 C 328.801 83.467,328.534 84.667,328.349 85.583 C 328.164 86.500,327.895 87.775,327.752 88.417 C 327.610 89.058,327.302 90.483,327.070 91.583 C 326.837 92.683,326.235 95.458,325.732 97.750 C 325.228 100.042,324.668 102.667,324.486 103.583 C 324.305 104.500,324.089 105.513,324.007 105.833 C 323.925 106.154,323.819 106.679,323.772 107.000 C 323.725 107.321,323.533 108.183,323.346 108.917 C 323.158 109.650,323.003 110.381,323.002 110.542 C 323.000 110.815,323.432 110.833,329.750 110.833 C 333.462 110.833,336.500 110.793,336.500 110.743 C 336.500 110.694,336.764 109.437,337.086 107.952 C 337.408 106.466,337.818 104.575,337.997 103.750 C 339.558 96.552,339.897 95.052,340.279 93.667 C 340.519 92.796,341.046 91.371,341.449 90.500 C 341.853 89.629,342.177 88.895,342.169 88.869 C 342.161 88.843,342.251 88.725,342.369 88.607 C 342.487 88.489,342.846 88.048,343.167 87.627 C 344.725 85.584,347.695 84.500,349.432 85.341 C 350.945 86.073,351.028 87.703,349.828 93.083 C 349.548 94.339,348.680 98.417,347.754 102.833 C 346.912 106.847,346.582 108.388,346.175 110.208 L 346.035 110.833 352.761 110.833 L 359.487 110.833 359.651 110.208 C 359.740 109.865,359.932 108.948,360.077 108.171 C 360.222 107.395,360.413 106.490,360.501 106.161 C 360.590 105.832,360.691 105.342,360.726 105.073 C 360.761 104.804,360.829 104.471,360.877 104.333 C 361.002 103.977,361.641 100.873,361.748 100.106 C 361.797 99.751,361.873 99.404,361.916 99.334 C 361.993 99.210,363.281 93.252,363.424 92.363 C 363.463 92.117,363.684 91.057,363.914 90.006 C 365.218 84.066,365.092 81.342,363.399 78.818 C 361.409 75.850,357.638 74.669,352.583 75.431 M263.435 76.542 C 263.227 77.636,263.165 77.935,262.741 79.874 C 262.503 80.961,262.287 82.015,262.260 82.217 C 262.233 82.418,262.168 82.696,262.115 82.833 C 262.062 82.971,261.830 84.023,261.599 85.171 C 261.368 86.320,261.058 87.782,260.909 88.421 C 260.761 89.060,260.388 90.783,260.081 92.250 C 259.368 95.658,257.482 104.472,256.739 107.868 C 256.424 109.308,256.167 110.564,256.167 110.660 C 256.167 110.777,258.344 110.833,262.893 110.833 L 269.618 110.833 269.890 109.542 C 270.039 108.831,270.195 108.063,270.237 107.833 C 270.279 107.604,270.620 106.029,270.994 104.333 C 271.369 102.638,271.900 100.163,272.175 98.834 C 272.450 97.505,272.709 96.268,272.751 96.084 C 273.308 93.632,273.776 91.515,274.168 89.667 C 275.034 85.581,276.356 79.435,276.604 78.333 C 276.739 77.737,276.893 76.969,276.947 76.625 L 277.044 76.000 270.290 76.000 L 263.537 76.000 263.435 76.542 M196.424 83.573 C 198.665 84.578,199.682 86.532,199.401 89.292 L 199.295 90.333 192.815 90.333 L 186.336 90.333 186.751 89.233 C 188.606 84.304,192.706 81.905,196.424 83.573 M106.555 85.058 C 109.659 86.877,110.041 92.547,107.417 97.856 C 103.595 105.589,94.688 103.332,95.398 94.812 C 96.048 87.023,101.611 82.160,106.555 85.058 M304.083 84.878 C 306.561 86.155,307.504 89.103,306.736 93.167 C 305.603 99.158,302.784 102.535,298.907 102.546 C 294.551 102.559,292.262 98.233,293.591 92.500 C 293.926 91.055,293.912 91.107,294.024 90.917 C 294.079 90.825,294.216 90.461,294.330 90.107 C 295.799 85.554,300.502 83.032,304.083 84.878 M113.743 141.542 C 113.700 141.656,113.683 147.637,113.707 154.833 L 113.750 167.917 195.042 167.959 L 276.333 168.000 276.333 161.584 L 276.333 155.167 285.917 155.167 L 295.500 155.167 295.500 148.500 L 295.500 141.833 293.417 141.833 L 291.333 141.833 291.333 146.583 L 291.333 151.333 283.833 151.333 L 276.333 151.333 276.333 146.583 L 276.333 141.833 274.333 141.833 L 272.333 141.833 272.333 152.917 L 272.333 164.000 195.000 164.000 L 117.667 164.000 117.667 152.667 L 117.667 141.333 115.745 141.333 C 114.361 141.333,113.801 141.392,113.743 141.542 " stroke="none" fill="#f4c43c" fill-rule="evenodd"></path><path id="path1" d="" stroke="none" fill="#f8c43c" fill-rule="evenodd"></path><path id="path2" d="" stroke="none" fill="#f8c43c" fill-rule="evenodd"></path><path id="path3" d="" stroke="none" fill="#f8c43c" fill-rule="evenodd"></path><path id="path4" d="" stroke="none" fill="#f8c43c" fill-rule="evenodd"></path></g></svg>